name p10_grf_mean_speed_1.6
datacolumns 13
datarows 22
range 0.0000000000 0.2100000000
endheader
time	grf_x_l_mean	grf_x_l_var	grf_y_l_mean	grf_y_l_var	grf_z_l_mean	grf_z_l_var	grf_x_r_mean	grf_x_r_var	grf_y_r_mean	grf_y_r_var	grf_z_r_mean	grf_z_r_var
0.0000000000	194.1391036463	1.0000000000	1201.4282072433	1.0000000000	0.0000000000	0.0000000000	20.3300632176	1.0000000000	11.8447469584	1.0000000000	0.0000000000	0.0000000000
0.0100000000	217.7414320149	1.0000000000	1185.9730887040	1.0000000000	0.0000000000	0.0000000000	31.9690568016	1.0000000000	67.0258809096	1.0000000000	0.0000000000	0.0000000000
0.0200000000	241.9417170693	1.0000000000	1151.8148014822	1.0000000000	0.0000000000	0.0000000000	40.5836033815	1.0000000000	160.6275499630	1.0000000000	0.0000000000	0.0000000000
0.0300000000	264.0468615797	1.0000000000	1095.4148460003	1.0000000000	0.0000000000	0.0000000000	35.9245241788	1.0000000000	289.0715680792	1.0000000000	0.0000000000	0.0000000000
0.0400000000	280.5248907869	1.0000000000	1013.8240722169	1.0000000000	0.0000000000	0.0000000000	8.0061785785	1.0000000000	434.0476781304	1.0000000000	0.0000000000	0.0000000000
0.0500000000	285.2687183149	1.0000000000	905.3973753838	1.0000000000	0.0000000000	0.0000000000	-37.4225792592	1.0000000000	573.2799544465	1.0000000000	0.0000000000	0.0000000000
0.0600000000	275.1974415863	1.0000000000	772.1989803097	1.0000000000	0.0000000000	0.0000000000	-83.8424676556	1.0000000000	692.7401886067	1.0000000000	0.0000000000	0.0000000000
0.0700000000	248.6050608396	1.0000000000	622.0180683938	1.0000000000	0.0000000000	0.0000000000	-122.8906250658	1.0000000000	789.5147072534	1.0000000000	0.0000000000	0.0000000000
0.0800000000	204.4277693106	1.0000000000	467.7532806320	1.0000000000	0.0000000000	0.0000000000	-156.4021462484	1.0000000000	866.4318234659	1.0000000000	0.0000000000	0.0000000000
0.0900000000	149.1676182682	1.0000000000	324.0058177294	1.0000000000	0.0000000000	0.0000000000	-183.4790038891	1.0000000000	929.8165967413	1.0000000000	0.0000000000	0.0000000000
0.1000000000	94.1146293460	1.0000000000	204.1905110791	1.0000000000	0.0000000000	0.0000000000	-203.2009916285	1.0000000000	989.1061336987	1.0000000000	0.0000000000	0.0000000000
0.1100000000	47.0174460214	1.0000000000	116.0537290345	1.0000000000	0.0000000000	0.0000000000	-217.1066810639	1.0000000000	1049.4350123265	1.0000000000	0.0000000000	0.0000000000
0.1200000000	14.3056050210	1.0000000000	58.2718409294	1.0000000000	0.0000000000	0.0000000000	-224.2367536789	1.0000000000	1107.4622654543	1.0000000000	0.0000000000	0.0000000000
0.1300000000	-3.1980449725	1.0000000000	23.9750676651	1.0000000000	0.0000000000	0.0000000000	-222.7787101414	1.0000000000	1157.3492691012	1.0000000000	0.0000000000	0.0000000000
0.1400000000	-11.0857173463	1.0000000000	6.3900625807	1.0000000000	0.0000000000	0.0000000000	-214.6254196221	1.0000000000	1195.5368014059	1.0000000000	0.0000000000	0.0000000000
0.1500000000	0.0000000000	1.0000000000	0.0000000000	1.0000000000	0.0000000000	0.0000000000	-201.7731791489	1.0000000000	1218.4796069545	1.0000000000	0.0000000000	0.0000000000
0.1600000000	0.0000000000	1.0000000000	0.0000000000	1.0000000000	0.0000000000	0.0000000000	-183.1732037832	1.0000000000	1221.5804053191	1.0000000000	0.0000000000	0.0000000000
0.1700000000	0.0000000000	1.0000000000	0.0000000000	1.0000000000	0.0000000000	0.0000000000	-161.2846585248	1.0000000000	1203.8499810459	1.0000000000	0.0000000000	0.0000000000
0.1800000000	0.0000000000	1.0000000000	0.0000000000	1.0000000000	0.0000000000	0.0000000000	-139.0606366310	1.0000000000	1169.0076235836	1.0000000000	0.0000000000	0.0000000000
0.1900000000	0.0000000000	1.0000000000	0.0000000000	1.0000000000	0.0000000000	0.0000000000	-116.3045481747	1.0000000000	1121.0443007185	1.0000000000	0.0000000000	0.0000000000
0.2000000000	0.0000000000	1.0000000000	0.0000000000	1.0000000000	0.0000000000	0.0000000000	-93.6627985560	1.0000000000	1061.7577716820	1.0000000000	0.0000000000	0.0000000000
0.2100000000	0.0000000000	1.0000000000	0.0000000000	1.0000000000	0.0000000000	0.0000000000	-73.8510058006	1.0000000000	993.9133753991	1.0000000000	0.0000000000	0.0000000000
